{
  "source": "C:\\Users\\Peter\\Desktop\\stuff\\MIUN\\quantitative_research\\video_compression\\videos\\BVI-HD\\BVI-HD_CDVL_videos\\ORIG\\Diver_1920x1080_30fps.mp4",
  "output": "C:\\Users\\Peter\\Desktop\\stuff\\MIUN\\quantitative_research\\video_compression\\compressed_videos\\BVI-HD\\av1\\1.5\\Diver_1920x1080_30fps_av1.mkv",
  "codec": "av1",
  "ok": "Input #0, mov,mp4,m4a,3gp,3g2,mj2, from 'C:\\Users\\Peter\\Desktop\\stuff\\MIUN\\quantitative_research\\video_compression\\videos\\BVI-HD\\BVI-HD_CDVL_videos\\ORIG\\Diver_1920x1080_30fps.mp4':\n  Metadata:\n    major_brand     : isom\n    minor_version   : 512\n    compatible_brands: isomiso2avc1mp41\n    encoder         : Lavf54.28.101\n  Duration: 00:00:05.00, start: 0.000000, bitrate: 196798 kb/s\n  Stream #0:0[0x1](und): Video: h264 (High 4:4:4 Predictive) (avc1 / 0x31637661), yuv420p(progressive), 1920x1080, 196794 kb/s, 30 fps, 30 tbr, 30 tbn (default)\n    Metadata:\n      handler_name    : VideoHandler\n      vendor_id       : [0][0][0][0]\n[out#0/matroska @ 0000011f35319180] Codec AVOption b:a (set bitrate (in bits/s)) has not been used for any stream. The most likely reason is either wrong type (e.g. a video option with no video streams) or that it is a private option of some decoder which was not actually used for any stream.\nStream mapping:\n  Stream #0:0 -> #0:0 (h264 (native) -> av1 (libsvtav1))\nPress [q] to stop, [?] for help\nSvt[info]: -------------------------------------------\nSvt[info]: SVT [version]:\tSVT-AV1 Encoder Lib v3.1.0-19-g6ecfe8ec\nSvt[info]: SVT [build]  :\tGCC 15.2.0\t 64 bit\nSvt[info]: LIB Build date: Aug 17 2025 11:37:13\nSvt[info]: -------------------------------------------\nSvt[info]: Level of Parallelism: 5\nSvt[info]: Number of PPCS 93\nSvt[info]: [asm level on system : up to avx2]\nSvt[info]: [asm level selected : up to avx2]\nSvt[info]: -------------------------------------------\nSvt[info]: SVT [config]: main profile\ttier (auto)\tlevel (auto)\nSvt[info]: SVT [config]: width / height / fps numerator / fps denominator \t\t: 1920 / 1080 / 30 / 1\nSvt[info]: SVT [config]: bit-depth / color format \t\t\t\t\t: 8 / YUV420\nSvt[info]: SVT [config]: preset / tune / pred struct \t\t\t\t\t: 4 / PSNR / random access\nSvt[info]: SVT [config]: gop size / mini-gop size / key-frame type \t\t\t: 161 / 16 / key frame\nSvt[info]: SVT [config]: BRC mode / target bitrate (kbps)\t\t\t\t: VBR / 1500 \nSvt[info]: SVT [config]: AQ mode / Variance Boost \t\t\t\t\t: 2 / 0\nSvt[info]: SVT [config]: sharpness / luminance-based QP bias \t\t\t\t: 0 / 0\nSvt[info]: SVT [config]: QP scale compress strength \t\t\t\t\t: 0\nSvt[info]: -------------------------------------------\nOutput #0, matroska, to 'C:\\Users\\Peter\\Desktop\\stuff\\MIUN\\quantitative_research\\video_compression\\compressed_videos\\BVI-HD\\av1\\1.5\\Diver_1920x1080_30fps_av1.mkv':\n  Metadata:\n    major_brand     : isom\n    minor_version   : 512\n    compatible_brands: isomiso2avc1mp41\n    encoder         : Lavf62.3.100\n  Stream #0:0(und): Video: av1 (AV01 / 0x31305641), yuv420p(tv, progressive), 1920x1080, q=2-31, 1500 kb/s, 30 fps, 1k tbn (default)\n    Metadata:\n      encoder         : Lavc62.11.100 libsvtav1\n      handler_name    : VideoHandler\n      vendor_id       : [0][0][0][0]\n    Side data:\n      cpb: bitrate max/min/avg: 0/0/1500000 buffer size: 1500000 vbv_delay: N/A\nframe=    0 fps=0.0 q=0.0 size=       0KiB time=N/A bitrate=N/A speed=N/A elapsed=0:00:01.08    \nframe=    0 fps=0.0 q=0.0 size=       0KiB time=N/A bitrate=N/A speed=N/A elapsed=0:00:01.69    \nframe=    0 fps=0.0 q=0.0 size=       0KiB time=N/A bitrate=N/A speed=N/A elapsed=0:00:02.25    \nframe=    0 fps=0.0 q=0.0 size=       0KiB time=N/A bitrate=N/A speed=N/A elapsed=0:00:02.81    \nframe=    0 fps=0.0 q=0.0 size=       0KiB time=N/A bitrate=N/A speed=N/A elapsed=0:00:03.33    \nframe=    0 fps=0.0 q=0.0 size=       0KiB time=N/A bitrate=N/A speed=N/A elapsed=0:00:03.87    \nframe=    1 fps=0.2 q=12.0 size=       1KiB time=00:00:00.00 bitrate=N/A speed=   0x elapsed=0:00:04.43    \nframe=    1 fps=0.2 q=12.0 size=       1KiB time=00:00:00.00 bitrate=N/A speed=   0x elapsed=0:00:04.96    \nframe=    1 fps=0.2 q=12.0 size=       1KiB time=00:00:00.00 bitrate=N/A speed=   0x elapsed=0:00:05.49    \nframe=    4 fps=0.7 q=38.0 size=       1KiB time=00:00:00.10 bitrate=  57.0kbits/s speed=0.0166x elapsed=0:00:06.02    \nframe=    7 fps=1.1 q=34.0 size=       1KiB time=00:00:00.20 bitrate=  28.5kbits/s speed=0.0305x elapsed=0:00:06.55    \nframe=    9 fps=1.3 q=30.0 size=       1KiB time=00:00:00.26 bitrate=  21.4kbits/s speed=0.0377x elapsed=0:00:07.07    \nframe=   11 fps=1.4 q=34.0 size=       1KiB time=00:00:00.33 bitrate=  17.1kbits/s speed=0.0435x elapsed=0:00:07.65    \nframe=   16 fps=1.9 q=32.0 size=       1KiB time=00:00:00.50 bitrate=  11.4kbits/s speed=0.0609x elapsed=0:00:08.20    \nframe=   18 fps=2.1 q=30.0 size=       1KiB time=00:00:00.56 bitrate=  10.1kbits/s speed=0.0648x elapsed=0:00:08.73    \nframe=   20 fps=2.2 q=29.0 size=       1KiB time=00:00:00.63 bitrate=   9.0kbits/s speed=0.0683x elapsed=0:00:09.27    \nframe=   22 fps=2.2 q=28.0 size=       1KiB time=00:00:00.70 bitrate=   8.1kbits/s speed=0.0712x elapsed=0:00:09.82    \nframe=   23 fps=2.2 q=30.0 size=       1KiB time=00:00:00.73 bitrate=   7.8kbits/s speed=0.0708x elapsed=0:00:10.36    \nframe=   26 fps=2.4 q=27.0 size=       1KiB time=00:00:00.83 bitrate=   6.8kbits/s speed=0.0763x elapsed=0:00:10.91    \nframe=   27 fps=2.4 q=29.0 size=       1KiB time=00:00:00.86 bitrate=   6.6kbits/s speed=0.0759x elapsed=0:00:11.42    \nframe=   31 fps=2.6 q=29.0 size=       1KiB time=00:00:00.96 bitrate=   5.9kbits/s speed=0.0808x elapsed=0:00:11.96    \nframe=   33 fps=2.6 q=16.0 size=       1KiB time=00:00:01.06 bitrate=   5.3kbits/s speed=0.0854x elapsed=0:00:12.49    \nframe=   35 fps=2.7 q=28.0 size=       1KiB time=00:00:01.13 bitrate=   5.0kbits/s speed=0.0871x elapsed=0:00:13.01    \nframe=   36 fps=2.7 q=24.0 size=       1KiB time=00:00:01.16 bitrate=   4.9kbits/s speed=0.0862x elapsed=0:00:13.54    \nframe=   38 fps=2.7 q=26.0 size=       1KiB time=00:00:01.23 bitrate=   4.6kbits/s speed=0.0876x elapsed=0:00:14.07    \nframe=   39 fps=2.7 q=28.0 size=       1KiB time=00:00:01.26 bitrate=   4.5kbits/s speed=0.0866x elapsed=0:00:14.62    \nframe=   41 fps=2.7 q=25.0 size=       1KiB time=00:00:01.33 bitrate=   4.3kbits/s speed=0.0877x elapsed=0:00:15.19    \nframe=   43 fps=2.7 q=30.0 size=       1KiB time=00:00:01.40 bitrate=   4.1kbits/s speed=0.0886x elapsed=0:00:15.79    \nframe=   44 fps=2.7 q=27.0 size=       1KiB time=00:00:01.40 bitrate=   4.1kbits/s speed=0.0853x elapsed=0:00:16.41    \nframe=   46 fps=2.7 q=28.0 size=       1KiB time=00:00:01.50 bitrate=   3.8kbits/s speed=0.0882x elapsed=0:00:17.00    \nframe=   49 fps=2.8 q=16.0 size=       1KiB time=00:00:01.56 bitrate=   3.6kbits/s speed=0.0891x elapsed=0:00:17.58    \nframe=   50 fps=2.8 q=29.0 size=       1KiB time=00:00:01.63 bitrate=   3.5kbits/s speed=0.0901x elapsed=0:00:18.12    \nframe=   52 fps=2.8 q=30.0 size=       1KiB time=00:00:01.70 bitrate=   3.4kbits/s speed=0.091x elapsed=0:00:18.67    \nframe=   57 fps=3.0 q=20.0 size=       1KiB time=00:00:01.86 bitrate=   3.1kbits/s speed=0.0972x elapsed=0:00:19.20    \nframe=   57 fps=2.9 q=20.0 size=       1KiB time=00:00:01.86 bitrate=   3.1kbits/s speed=0.0943x elapsed=0:00:19.79    \nframe=   59 fps=2.9 q=33.0 size=       1KiB time=00:00:01.93 bitrate=   3.0kbits/s speed=0.095x elapsed=0:00:20.34    \nframe=   61 fps=2.9 q=32.0 size=       1KiB time=00:00:02.00 bitrate=   2.9kbits/s speed=0.0959x elapsed=0:00:20.86    \nframe=   65 fps=3.0 q=11.0 size=       1KiB time=00:00:02.13 bitrate=   2.7kbits/s speed=0.0998x elapsed=0:00:21.38    \nframe=   69 fps=3.1 q=33.0 size=       1KiB time=00:00:02.26 bitrate=   2.5kbits/s speed=0.103x elapsed=0:00:21.92    \nframe=   73 fps=3.3 q=20.0 size=       1KiB time=00:00:02.40 bitrate=   2.4kbits/s speed=0.107x elapsed=0:00:22.44    \nframe=   73 fps=3.2 q=20.0 size=       1KiB time=00:00:02.40 bitrate=   2.4kbits/s speed=0.104x elapsed=0:00:22.97    \nframe=   77 fps=3.3 q=33.0 size=       1KiB time=00:00:02.53 bitrate=   2.3kbits/s speed=0.108x elapsed=0:00:23.48    \nframe=   81 fps=3.4 q=10.0 size=       1KiB time=00:00:02.66 bitrate=   2.1kbits/s speed=0.111x elapsed=0:00:24.00    \nframe=   85 fps=3.5 q=35.0 size=       1KiB time=00:00:02.80 bitrate=   2.0kbits/s speed=0.114x elapsed=0:00:24.51    \nframe=   87 fps=3.5 q=36.0 size=       1KiB time=00:00:02.86 bitrate=   2.0kbits/s speed=0.115x elapsed=0:00:25.03    \nframe=   89 fps=3.5 q=22.0 size=       1KiB time=00:00:02.93 bitrate=   1.9kbits/s speed=0.115x elapsed=0:00:25.54    \nframe=   93 fps=3.6 q=35.0 size=       1KiB time=00:00:03.06 bitrate=   1.9kbits/s speed=0.118x elapsed=0:00:26.07    \nframe=   95 fps=3.6 q=36.0 size=       1KiB time=00:00:03.13 bitrate=   1.8kbits/s speed=0.118x elapsed=0:00:26.61    \nframe=   99 fps=3.6 q=32.0 size=       1KiB time=00:00:03.26 bitrate=   1.7kbits/s speed=0.12x elapsed=0:00:27.15    \nframe=  101 fps=3.7 q=32.0 size=       1KiB time=00:00:03.33 bitrate=   1.7kbits/s speed=0.121x elapsed=0:00:27.65    \nframe=  105 fps=3.7 q=23.0 size=       1KiB time=00:00:03.46 bitrate=   1.6kbits/s speed=0.123x elapsed=0:00:28.17    \nframe=  105 fps=3.7 q=23.0 size=       1KiB time=00:00:03.46 bitrate=   1.6kbits/s speed=0.121x elapsed=0:00:28.69    \nframe=  109 fps=3.7 q=33.0 size=       1KiB time=00:00:03.60 bitrate=   1.6kbits/s speed=0.123x elapsed=0:00:29.20    \nframe=  109 fps=3.7 q=33.0 size=       1KiB time=00:00:03.60 bitrate=   1.6kbits/s speed=0.121x elapsed=0:00:29.72    \nframe=  113 fps=3.7 q=15.0 size=       1KiB time=00:00:03.73 bitrate=   1.5kbits/s speed=0.123x elapsed=0:00:30.25    \nframe=  117 fps=3.8 q=34.0 size=       1KiB time=00:00:03.86 bitrate=   1.5kbits/s speed=0.126x elapsed=0:00:30.77    \nframe=  119 fps=3.8 q=37.0 size=       1KiB time=00:00:03.93 bitrate=   1.5kbits/s speed=0.126x elapsed=0:00:31.28    \nframe=  121 fps=3.8 q=20.0 size=       1KiB time=00:00:04.00 bitrate=   1.4kbits/s speed=0.126x elapsed=0:00:31.79    \nframe=  125 fps=3.9 q=36.0 size=       1KiB time=00:00:04.13 bitrate=   1.4kbits/s speed=0.128x elapsed=0:00:32.33    \nframe=  127 fps=3.9 q=38.0 size=       1KiB time=00:00:04.20 bitrate=   1.4kbits/s speed=0.128x elapsed=0:00:32.88    \nframe=  133 fps=4.0 q=36.0 size=       1KiB time=00:00:04.40 bitrate=   1.3kbits/s speed=0.132x elapsed=0:00:33.41    \nframe=  135 fps=4.0 q=38.0 size=       1KiB time=00:00:04.46 bitrate=   1.3kbits/s speed=0.132x elapsed=0:00:33.92    \nframe=  137 fps=4.0 q=28.0 size=       1KiB time=00:00:04.53 bitrate=   1.3kbits/s speed=0.132x elapsed=0:00:34.45    \nframe=  141 fps=4.0 q=38.0 size=       1KiB time=00:00:04.66 bitrate=   1.2kbits/s speed=0.133x elapsed=0:00:34.97    \n[out#0/matroska @ 0000011f35319180] video:786KiB audio:0KiB subtitle:0KiB other streams:0KiB global headers:0KiB muxing overhead: 0.179731%\nframe=  150 fps=4.2 q=42.0 Lsize=     787KiB time=00:00:04.96 bitrate=1298.2kbits/s speed=0.14x elapsed=0:00:35.36    \n",
  "seconds": 35.9014208316803,
  "probe_out": {}
}